<?xml version="1.0" encoding="UTF-8"?>
<svg version="1.1" xmlns="http://www.w3.org/2000/svg" width="500" height="500">
<path d="M0 0 C165 0 330 0 500 0 C500 165 500 330 500 500 C335 500 170 500 0 500 C0 335 0 170 0 0 Z " fill="#1F1F1F" transform="translate(0,0)"/>
<path d="M0 0 C165 0 330 0 500 0 C500 165 500 330 500 500 C335 500 170 500 0 500 C0 335 0 170 0 0 Z M188 60 C186.75734375 60.39058594 185.5146875 60.78117187 184.234375 61.18359375 C146.4714147 73.87370483 112.35484458 99.84894186 89 132 C88.59362305 132.55139648 88.18724609 133.10279297 87.76855469 133.67089844 C75.68068108 150.25161003 65.71425681 169.27077647 60 189 C59.77908691 189.74378906 59.55817383 190.48757812 59.33056641 191.25390625 C56.07964059 202.34176142 53.827326 213.47338386 52.2824707 224.92138672 C52.02277481 226.83240732 51.72976493 228.73882289 51.43359375 230.64453125 C50.67102632 236.89681389 50.80821558 243.21163608 50.8125 249.5 C50.81277191 250.16951691 50.81304382 250.83903381 50.81332397 251.52883911 C50.83197621 261.50241242 51.20160274 271.16432116 53 281 C53.22945312 282.28648437 53.45890625 283.57296875 53.6953125 284.8984375 C62.81081178 332.97070211 88.12379821 376.86340947 127 407 C127.5475293 407.42925781 128.09505859 407.85851562 128.65917969 408.30078125 C163.69835307 435.60812131 206.31573902 449.72872416 250.5625 449.5 C251.99792145 449.49635941 251.99792145 449.49635941 253.46234131 449.49264526 C306.41680299 449.23336141 354.09567179 427.30611339 392 391 C392.75023437 390.29101562 393.50046875 389.58203125 394.2734375 388.8515625 C408.17464291 375.3899209 419.07643427 359.07545236 428 342 C428.50611816 341.04480469 428.50611816 341.04480469 429.02246094 340.0703125 C452.63013838 294.92782685 456.89414248 239.83737724 442.0703125 191.26953125 C434.55037183 167.89232439 423.69788989 145.95297073 408 127 C407.33226562 126.13117188 406.66453125 125.26234375 405.9765625 124.3671875 C380.96297621 92.26162655 347.02743428 71.85834133 309 59 C307.78123169 58.57037964 307.78123169 58.57037964 306.5378418 58.13208008 C301.66699455 56.43671385 296.90068926 55.26195253 291.8125 54.4375 C291.15958984 54.32470703 290.50667969 54.21191406 289.83398438 54.09570312 C288.40006887 53.85287354 286.96433603 53.62063269 285.52734375 53.39672852 C283.68846583 53.10807158 281.85284323 52.79843944 280.01953125 52.47631836 C269.78746392 50.80359649 259.72208047 50.64236209 249.375 50.6875 C248.48815521 50.68965515 247.60131042 50.6918103 246.68759155 50.69403076 C225.97707768 50.77489195 207.74915381 53.71504393 188 60 Z " fill="#FEFDF9" transform="translate(0,0)"/>
<path d="M0 0 C2.16595578 -0.00271322 4.33191064 -0.006276 6.49786377 -0.01062012 C12.35502394 -0.01970538 18.21211332 -0.01621625 24.06927466 -0.00986195 C30.20876739 -0.00478388 36.34825422 -0.00949824 42.48774719 -0.01263428 C52.7927865 -0.01626783 63.09779709 -0.01148998 73.40283203 -0.00195312 C85.30955416 0.0089389 97.21620784 0.00539793 109.12292832 -0.00560594 C119.35844053 -0.01468586 129.59393215 -0.01596089 139.82944709 -0.0107286 C145.93735712 -0.00761391 152.04523498 -0.00718601 158.15314293 -0.01380157 C163.89303159 -0.01958494 169.63283204 -0.01555991 175.37271118 -0.00401306 C177.47697109 -0.00137217 179.58123844 -0.00212181 181.68549538 -0.00653839 C184.56144131 -0.01201753 187.43710595 -0.00513102 190.31303406 0.00482178 C191.14212758 0.00036033 191.97122111 -0.00410111 192.82543868 -0.00869775 C207.98180085 0.09277908 221.21775301 6.58983553 232.59106445 16.25878906 C233.68547852 17.18304688 233.68547852 17.18304688 234.80200195 18.12597656 C246.02969279 28.46610291 252.67191485 42.20084603 254.59106445 57.25878906 C254.59106445 60.22878906 254.59106445 63.19878906 254.59106445 66.25878906 C240.07106445 66.25878906 225.55106445 66.25878906 210.59106445 66.25878906 C209.60106445 62.95878906 208.61106445 59.65878906 207.59106445 56.25878906 C206.60106445 54.93878906 205.61106445 53.61878906 204.59106445 52.25878906 C204.59106445 51.59878906 204.59106445 50.93878906 204.59106445 50.25878906 C203.26847973 49.57104501 201.93119942 48.91167533 200.59106445 48.25878906 C199.56725646 47.74729278 198.54344847 47.23579649 197.48861599 46.70880032 C193.23859633 44.90865946 189.35865155 44.83659782 184.79273987 44.87110901 C183.49979088 44.8630307 183.49979088 44.8630307 182.1807217 44.8547892 C179.30506712 44.8405318 176.4298743 44.84760786 173.55419922 44.85473633 C171.4873518 44.84903162 169.42050752 44.84206697 167.35366821 44.8339386 C161.74830697 44.8160036 156.14310224 44.81717622 150.53772092 44.82288098 C145.85575387 44.82597224 141.1738169 44.8198811 136.49185413 44.81384224 C125.44571582 44.79979758 114.39965484 44.80135792 103.35351562 44.81274414 C91.96258932 44.82422638 80.57189843 44.81014765 69.18100315 44.78334767 C59.39566311 44.76118823 49.61039695 44.75455382 39.82503361 44.76042408 C33.98306099 44.76379412 28.14123929 44.76137524 22.2992878 44.74417305 C16.80559665 44.72870217 11.31225419 44.73266133 5.81857681 44.7514782 C3.80462269 44.75516359 1.79064272 44.75205707 -0.22328758 44.74159241 C-2.97713505 44.72837758 -5.72982899 44.73993434 -8.48362732 44.75758362 C-9.6729961 44.74317611 -9.6729961 44.74317611 -10.88639253 44.72847754 C-17.02455268 44.80916471 -22.39160246 46.40659069 -26.93998903 50.70604998 C-30.33553464 54.62912007 -32.64908753 58.13520351 -32.68359375 63.36547852 C-32.69312576 64.16343338 -32.70265778 64.96138824 -32.71247864 65.78352356 C-32.71111153 67.0648542 -32.71111153 67.0648542 -32.7097168 68.37207031 C-32.71614449 69.70373482 -32.71614449 69.70373482 -32.72270203 71.06230164 C-32.72843929 72.93923084 -32.72895003 74.81618228 -32.72460938 76.69311523 C-32.72145827 79.55068403 -32.74488501 82.40720824 -32.77026367 85.26464844 C-32.77253776 87.0921211 -32.77323965 88.91959652 -32.7722168 90.74707031 C-32.78142654 91.59521805 -32.79063629 92.44336578 -32.80012512 93.31721497 C-32.74876458 99.97486121 -31.52084188 104.66416128 -27.22143555 109.94628906 C-20.96264396 115.09240659 -15.43426928 116.85588567 -7.40338135 116.75758362 C-6.53113253 116.76296817 -5.65888372 116.76835273 -4.76020312 116.77390045 C-1.85538782 116.78710953 1.04857303 116.7720597 3.95336914 116.75708008 C6.04343045 116.76090551 8.13348912 116.76652647 10.22354126 116.77380371 C14.71645382 116.78573945 19.20913262 116.78527614 23.70204926 116.77520943 C30.81351598 116.75962277 37.92474362 116.77334566 45.03619385 116.79124451 C58.85458357 116.82204906 72.67290003 116.8235668 86.49131775 116.82159424 C104.06568215 116.82020109 121.63998988 116.83062282 139.21431279 116.87017196 C146.27601931 116.88506779 153.33751323 116.88486319 160.39922285 116.87269413 C164.80291658 116.86796689 169.2065298 116.87552843 173.61021042 116.8862381 C175.64344976 116.88863426 177.67670285 116.88594441 179.70992661 116.87763023 C190.06514975 116.83783828 199.66036242 116.89932175 209.59106445 120.25878906 C211.31389648 120.82339844 211.31389648 120.82339844 213.0715332 121.39941406 C219.81798205 124.16419252 225.08951844 127.50181318 230.59106445 132.25878906 C231.58879883 133.02449219 231.58879883 133.02449219 232.60668945 133.80566406 C243.96437354 142.83815299 251.97617842 157.05516923 254.20068359 171.30053711 C255.00033643 179.40858679 254.88447881 187.55491684 254.85180664 195.6953125 C254.841066 198.88333047 254.85175779 202.07078798 254.86450195 205.25878906 C254.86318057 207.31347779 254.86061862 209.36816617 254.85668945 211.42285156 C254.86073792 212.36166168 254.86478638 213.3004718 254.86895752 214.26773071 C254.74672786 231.74598647 248.08770907 247.15726262 236.13793945 259.86816406 C218.6884459 276.22020519 199.5276467 279.71899437 176.47094727 279.6628418 C174.34737795 279.66855233 172.22381171 279.67551923 170.10025024 279.68363953 C164.36035555 279.70151294 158.62061423 279.70041318 152.88070011 279.69469714 C148.07497022 279.69159607 143.2692694 279.69770813 138.46354365 279.70373589 C127.11735389 279.71776118 115.77123944 279.71623717 104.42504883 279.70483398 C92.75300098 279.6933619 81.08118316 279.70741787 69.40916562 279.73423046 C59.35863424 279.75644657 49.30817474 279.76301133 39.25762057 279.75715405 C33.26791547 279.75379654 27.27835767 279.75611868 21.2886734 279.77340508 C15.651259 279.78896593 10.01418294 279.78481784 4.37678146 279.76609993 C2.31941921 279.76243887 0.26203137 279.76544912 -1.79530716 279.77598572 C-23.97695118 279.88082773 -42.49075609 275.94882051 -58.82299805 259.87207031 C-59.67635742 259.0096875 -60.5297168 258.14730469 -61.40893555 257.25878906 C-62.01479492 256.67484375 -62.6206543 256.09089844 -63.24487305 255.48925781 C-74.37554949 243.85799539 -77.31538318 227.56852222 -78.40893555 212.25878906 C-63.55893555 212.25878906 -48.70893555 212.25878906 -33.40893555 212.25878906 C-32.74893555 215.22878906 -32.08893555 218.19878906 -31.40893555 221.25878906 C-28.40395415 226.75065161 -24.32400959 230.99957292 -18.40893555 233.25878906 C-15.52865199 233.45754593 -12.74467245 233.54579864 -9.86421204 233.53967285 C-8.99326422 233.5456151 -8.12231641 233.55155734 -7.22497624 233.55767965 C-4.30098706 233.57504921 -1.3771617 233.57806972 1.546875 233.58105469 C3.64121348 233.59031144 5.73554859 233.60036082 7.82987976 233.61114502 C13.52427917 233.63739507 19.21863142 233.65028353 24.91308188 233.65916634 C28.47108645 233.66502803 32.02907811 233.67323773 35.58707619 233.68217468 C46.72017949 233.70952634 57.85325333 233.72885827 68.98638791 233.73657846 C81.83602816 233.74553793 94.6852427 233.78062454 107.5347535 233.83857965 C117.46781017 233.88182459 127.40074713 233.90198765 137.33389693 233.9046607 C143.26604022 233.90675617 149.19778337 233.9185571 155.1298275 233.95429993 C160.71221754 233.98728106 166.29390714 233.99156363 171.87635994 233.97402191 C173.9221624 233.97248211 175.96800265 233.98115451 178.01371002 234.00093842 C191.35944195 234.52328005 191.35944195 234.52328005 203.05175495 228.95211029 C210.65895826 220.58378746 210.40311328 211.12379838 210.29785156 200.39111328 C210.27859591 197.76308243 210.31812492 195.14033266 210.36254883 192.51269531 C210.40916947 183.26145992 210.26313448 175.41595943 203.59106445 168.25878906 C196.58662166 162.50616571 189.84231731 162.10879826 180.95336914 162.12075806 C179.66805188 162.11652614 179.66805188 162.11652614 178.35676861 162.11220872 C175.49214965 162.10389141 172.62756948 162.10252691 169.76293945 162.10107422 C167.70597729 162.09640375 165.64901616 162.0912598 163.59205627 162.0856781 C159.16412452 162.07440965 154.73619946 162.06596929 150.30825806 162.05955887 C143.29727692 162.04885901 136.28634371 162.02860754 129.27539062 162.00643921 C109.33913374 161.94458591 89.40287956 161.89055892 69.46655273 161.85742188 C58.45440036 161.83903795 47.44232824 161.81005359 36.43023491 161.76941717 C30.60821408 161.74840835 24.78629412 161.73289861 18.9642334 161.73060989 C13.48123638 161.72845194 7.99844925 161.71246608 2.51551628 161.68622017 C0.51215716 161.67906895 -1.49122751 161.67690573 -3.49459648 161.68032265 C-24.90278868 161.71098201 -42.26552693 158.59739432 -58.40893555 143.25878906 C-66.22818598 135.27902616 -71.7057363 126.80345065 -75.40893555 116.25878906 C-75.68632568 115.49937012 -75.96371582 114.73995117 -76.24951172 113.95751953 C-79.28955044 104.08122414 -78.89621193 93.84481534 -78.85498047 83.61474609 C-78.84647256 80.39778555 -78.87530084 77.1826063 -78.90698242 73.96582031 C-78.98194565 52.12470427 -74.01508095 34.03716415 -58.2487793 18.07128906 C-40.84507728 1.86466708 -22.72388808 -0.04784532 0 0 Z " fill="#FDFCF8" transform="translate(161.408935546875,106.7412109375)"/>
<path d="M0 0 C0.85309578 0.00291284 1.70619157 0.00582568 2.58513874 0.00882679 C3.48437468 0.00797237 4.38361063 0.00711794 5.31009614 0.00623763 C8.34730764 0.00458006 11.38446486 0.01010869 14.42167133 0.01555592 C16.58927894 0.01583776 18.75688665 0.01568012 20.92449421 0.01511341 C26.82921365 0.01482531 32.73391296 0.02072414 38.63862771 0.02768737 C44.8019392 0.03391875 50.9652511 0.03452454 57.12856525 0.03571278 C68.80872244 0.03882674 80.48887032 0.04704099 92.16902339 0.05706227 C105.4626257 0.06822141 118.75622775 0.07373335 132.04983383 0.0787577 C159.40417221 0.08922355 186.7585023 0.10682423 214.11283344 0.12908131 C214.933571 4.44779773 215.75128772 8.767073 216.56644672 13.08684498 C216.84300087 14.55021057 217.12031935 16.01343196 217.39847797 17.47649342 C219.14619583 26.67251788 220.76534036 35.86431329 222.11283344 45.12908131 C218.56439926 43.72773305 215.13967659 42.20955524 211.71830219 40.51970631 C192.86400495 31.28067279 174.56938689 23.97999835 154.11283344 19.12908131 C153.23772114 18.9144524 152.36260883 18.6998235 151.46097797 18.47869068 C97.06106048 5.73108123 38.60544547 17.83363412 -10.0280357 43.22454029 C-11.88716656 44.12908131 -11.88716656 44.12908131 -14.88716656 45.12908131 C-14.29073868 39.21717176 -13.47094708 33.45089703 -12.29341656 27.62908131 C-12.06603802 26.48644825 -12.06603802 26.48644825 -11.83406597 25.3207317 C-11.51657724 23.73059123 -11.19718446 22.14082979 -10.87593609 20.55144459 C-10.3829924 18.10839398 -9.89840361 15.66378255 -9.41451031 13.21892506 C-9.10380641 11.66804476 -8.79262613 10.1172598 -8.48091656 8.56658131 C-8.33609844 7.83439381 -8.19128033 7.10220631 -8.04207379 6.34783131 C-6.76777367 0.09374488 -6.39828896 0.01658034 0 0 Z " fill="#202020" transform="translate(146.8871665596962,-0.12908130884170532)"/>
<path d="M0 0 C0.91136719 0.47308594 1.82273438 0.94617188 2.76171875 1.43359375 C24.01040859 12.33271824 45.59178578 21.06940574 69 26 C69.84965332 26.17950195 70.69930664 26.35900391 71.57470703 26.54394531 C82.34385818 28.78531047 92.97237409 30.79438417 104 31 C104.99418945 31.02046387 105.98837891 31.04092773 107.01269531 31.06201172 C121.80286423 31.31891818 136.36129757 31.22102529 151 29 C151.97662598 28.85997559 152.95325195 28.71995117 153.95947266 28.57568359 C179.6503714 24.78289876 203.69845149 16.34744391 227 5 C228.13566406 4.44828125 229.27132812 3.8965625 230.44140625 3.328125 C232.63841445 2.24031565 234.82196555 1.1253178 237 0 C235.31755437 15.14201069 231.90793613 30.04489991 229 45 C156.4 45 83.8 45 9 45 C5.6217691 31.48707639 5.6217691 31.48707639 4.39453125 25.1171875 C4.26559982 24.45083282 4.1366684 23.78447815 4.00382996 23.09793091 C3.73772058 21.71890919 3.47316954 20.33958581 3.21020508 18.95996094 C2.80626365 16.84230605 2.39664126 14.72580366 1.98632812 12.609375 C0 2.28797556 0 2.28797556 0 0 Z " fill="#1F1F1F" transform="translate(132,455)"/>
</svg>
